<?xml version="1.0" encoding="UTF-8"?>
<svg id="Layer_1" data-name="Layer 1" xmlns="http://www.w3.org/2000/svg" viewBox="0 0 3012.27 884.34">
  <defs>
    <style>
      .cls-1, .cls-2, .cls-3 {
        fill: none;
      }

      .cls-4 {
        fill: #fdfdfe;
      }

      .cls-5 {
        fill: #f7d2c7;
      }

      .cls-2 {
        stroke-dasharray: 30.79 30.79;
      }

      .cls-2, .cls-3 {
        stroke-width: 8px;
      }

      .cls-2, .cls-3, .cls-6 {
        stroke: #bfbfbf;
        stroke-miterlimit: 10;
      }

      .cls-7 {
        fill: #eab9ec;
      }

      .cls-8 {
        fill: #68c9e0;
      }

      .cls-9 {
        fill: #4ca7c2;
      }

      .cls-6 {
        stroke-width: 3px;
      }

      .cls-6, .cls-10 {
        fill: #fff;
      }

      .cls-11 {
        fill: #abe4b5;
      }

      .cls-12 {
        fill: #aae5b5;
      }

      .cls-13 {
        fill: #f8e0aa;
      }

      .cls-14 {
        fill: #f4b537;
      }

      .cls-15 {
        fill: #62bc6f;
      }

      .cls-16 {
        fill: #f7dda6;
      }

      .cls-17 {
        fill: #efa897;
      }

      .cls-18 {
        fill: #fefefe;
      }

      .cls-19 {
        fill: #afeaba;
      }

      .cls-20 {
        fill: #d96fe2;
      }

      .cls-21 {
        fill: #ebbaed;
      }

      .cls-22 {
        fill: #f2deab;
      }

      .cls-23 {
        fill: #f5dea8;
      }

      .cls-24 {
        fill: #fdfefe;
      }

      .cls-25 {
        fill: #ace5b6;
      }

      .cls-26 {
        fill: #ade9b8;
      }

      .cls-27 {
        fill: #fcfdfd;
      }
    </style>
  </defs>
  <g>
    <circle class="cls-6" cx="208.76" cy="470.69" r="206.96"/>
    <g>
      <rect class="cls-1" x="76.61" y="547.19" width="273.27" height="105.04"/>
      <path class="cls-9" d="M124.51,587.21v-40.02h14.88c12.48,0,20.94,8.28,20.94,20.04s-8.46,19.98-20.94,19.98h-14.88ZM131.53,581.03h7.86c8.7,0,13.74-6.24,13.74-13.8s-4.8-13.86-13.74-13.86h-7.86v27.66Z"/>
      <path class="cls-9" d="M182.23,557.51c8.7,0,14.28,6.66,14.28,15.78v1.5h-22.38c.48,4.38,3.78,7.98,9.24,7.98,2.82,0,6.18-1.14,8.22-3.18l2.88,4.14c-2.88,2.76-7.14,4.2-11.76,4.2-8.7,0-15.18-6.06-15.18-15.24,0-8.4,6.12-15.18,14.7-15.18ZM174.07,570.35h16.32c-.12-3.42-2.46-7.68-8.16-7.68-5.4,0-7.86,4.14-8.16,7.68Z"/>
      <path class="cls-9" d="M212.95,587.21h-6.3v-23.46h-4.8v-5.52h4.8v-1.62c0-6.48,3.84-10.02,9.18-10.02,1.98,0,3.78.42,5.04,1.14l-1.38,4.68c-.6-.42-1.44-.66-2.52-.66-2.46,0-4.02,1.62-4.02,4.86v1.62h5.88v5.52h-5.88v23.46ZM222.85,549.53c0-2.16,1.8-3.9,3.9-3.9s3.9,1.74,3.9,3.9-1.74,3.9-3.9,3.9-3.9-1.74-3.9-3.9ZM223.63,587.21v-28.98h6.3v28.98h-6.3Z"/>
      <path class="cls-9" d="M260.05,587.21v-18.12c0-4.5-2.28-6-5.82-6-3.24,0-6,1.92-7.44,3.9v20.22h-6.3v-28.98h6.3v3.96c1.92-2.28,5.64-4.68,10.2-4.68,6.24,0,9.36,3.36,9.36,9.3v20.4h-6.3Z"/>
      <path class="cls-9" d="M289.81,557.51c8.7,0,14.28,6.66,14.28,15.78v1.5h-22.38c.48,4.38,3.78,7.98,9.24,7.98,2.82,0,6.18-1.14,8.22-3.18l2.88,4.14c-2.88,2.76-7.14,4.2-11.76,4.2-8.7,0-15.18-6.06-15.18-15.24,0-8.4,6.12-15.18,14.7-15.18ZM281.65,570.35h16.32c-.12-3.42-2.46-7.68-8.16-7.68-5.4,0-7.86,4.14-8.16,7.68Z"/>
    </g>
    <g>
      <path class="cls-8" d="M113.66,443.48c1.72-10.95,5.69-17.66,15.7-23.3-21.08-19.42-7.67-51.53,20.19-52.19,11.32,2.99,16.19-.5,5.83-9.23-13.01-29.6,31.11-51.99,46.18-22.14,5.46,10.81,1.94,20.87-4.57,29.71,5.07,4.16,9.78,9,12.52,15.02,2.65-6.25,7.07-11.48,11.23-16.32-20.57-23.76,11.67-58.2,35.82-35.14,11.34,10.83,10.49,24.86.63,36.29l4.59,3.65c30.53-8.76,50.95,28,27.98,50.05,6.9,5.05,16.28,13.53,13.27,22.45,2.23,8.83,2.62,18.01,1.15,27.55.93,5.57-8.7,7.92-13.37,9.01-13.84,3.23-30.76,2.1-44.52-1.38l-1.79-3.04c3.64,2.41,3.67,15.61,0,17.79,3.03,3.64-5.83,6.99-9.19,8-15,4.53-36.59,4.43-51.6,0-3.39-1-11.49-3.89-9.22-8.01-3.81-1.8-3.51-15.6,0-17.79l-1.78,3.02c-13.12,3.38-28.57,4.42-41.95,2.02-5.49-.98-15.26-3.28-17.11-8.49-2.13-7.9-1.8-17.28,0-27.55Z"/>
      <path class="cls-18" d="M113.66,443.48c-.59,2.88,0-119.55,0-119.55l179.84-3.65,11.84,124.35c-.57,1.18-1.34.42-2.3-2.3-2.46-10.94-8.28-16.37-17.2-22.38,17.37-12.81,14.71-39.54-5.56-47.26-2.06-.78-6.7-2.27-8.65-2.32-4.81-.11-10.08,2.21-10.26,1.76-.7-1.83-7.44-6-7.44-6,0,0,6.23-7.8,7.12-9.98,3.8-9.36.15-19.51-7.36-25.74-23.74-19.71-51.55,15.55-28.72,35.59-8.6,4.93-10.27,10.97-14.65,18.61-2.78,4.85-2.23-1.19-3.18-3.02-3.35-6.46-8.58-11.23-14.27-15.58,11.68-9.49,12.03-25.3,1.21-35.68-.24-.23-5.27-3.68-5.59-3.81-19.15-7.65-39.43,12.6-30.56,31.91,3.65,6.85,6,6.2,5.69,8.17s-10.25,3.7-14.96,3.64c-11.19-.14-22.76,8.94-26.19,19.51-3.99,12.32,1.25,22.28,10.66,30.2-4.07,3.96-10.11,6.52-13.3,11.35-2.49,3.77-5.6,9.3-6.19,12.18Z"/>
      <path class="cls-18" d="M305.34,469.88v40.17H113.66v-39.02c7.6,3.44,13.9,6.2,22.39,6.87,12.07.96,27.27.7,38.44-3.43v17.79c0,.63,2.9,2.54,3.78,3.11,12.18,7.81,50.37,7.79,62.46,0,.88-.57,3.77-2.49,3.77-3.11v-17.79c10.87,4.09,25.52,4.35,37.29,3.43,7.37-.58,17.23-2.57,22.4-8.02.33-1,.71-.99,1.15,0Z"/>
      <path class="cls-18" d="M221.14,449.66c.32.13,4.01,1.63,7.33,5.14,3.32,3.52,6.66,9.3,7.34,12.9.67,3.6.34,16.21.67,21.68-17.08,4.94-36.86,5.25-53.81-.12-1.48-13.92-.25-30.95,13.45-38.5,6.39-3.52,18.34-3.81,25.02-1.1Z"/>
      <path class="cls-18" d="M174.3,466.24c-2.98,4.86-44.98,5.17-51.88.31-4.5-21.68,3.34-43.16,28.6-41.47,21.64,1.44,26.02,23.09,23.29,41.16Z"/>
      <path class="cls-18" d="M297.12,466.26c-6.92,4.97-49.3,5.06-52.41-.02-1.66-16.53-.63-36.91,19.24-40.63,26.79-5.02,36.98,17.46,33.17,40.64Z"/>
      <path class="cls-4" d="M192.39,375.11c4.55,3.11,11.19,14,9.74,19.46-.18.69-9.55,4.67-12.2,7.52-11.79,12.73-9.03,30.42,4.05,40.8-1.66.95-10.42,9.83-11.45,8.6-.09-13.87-7.97-24.59-19.5-31.56,11.4-9.39,16.01-22.3,8.24-35.81-2.96-5.14-11.82-9.15-.03-12.2,7.44-1.93,14.8-1.15,21.14,3.18Z"/>
      <path class="cls-24" d="M236.47,451.51c-1.05,1.22-9.77-7.63-11.45-8.6,13.84-11.58,15.57-30.17,1.88-42.65-5.72-5.22-11.06-2.24-9.96-11.32,2.01-16.55,24.79-23.94,36.73-12.61-13.76,14.22-13.05,30.08,1.15,43.62-10.27,7.47-19.42,17.98-18.35,31.56Z"/>
      <path class="cls-24" d="M158.04,380.75c.42.24,6.63,6.45,6.87,6.87,9.99,17.24-10.37,37.28-27.03,26.47-3.36-2.18-8.37-8.88-9.01-12.79-2.57-15.79,14.79-28.88,29.17-20.55Z"/>
      <path class="cls-24" d="M268.31,378.33c18.18-3.21,29.89,23.27,13.08,34.89-25.78,17.82-44.85-29.28-13.08-34.89Z"/>
      <circle class="cls-18" cx="209.4" cy="420.67" r="19.08"/>
      <circle class="cls-27" cx="178.76" cy="347.84" r="15.43"/>
      <path class="cls-24" d="M249.89,359.32c-6.04,5.44-13.46,5.15-19.69.33-7.63-5.9-7.83-18.42-.02-24.05,16.64-12,33.17,11.6,19.71,23.72Z"/>
    </g>
  </g>
  <g>
    <circle class="cls-6" cx="857.38" cy="470.69" r="206.96"/>
    <g>
      <path class="cls-21" d="M844.62,318.33c7.83-1.2,15.87-1.21,23.72,0,2.2.36,2.93.73,3.87,2.84,1.93,4.35,2.97,22.67,4.94,23.85.93.56,11.38,4.2,12.11,4.08,4.12-.63,17.24-14.47,21.73-14.06,2.31.21,18.85,16.64,19.24,18.91,1.06,7.3-12.29,17.09-13.23,22.85-.15.89,3.4,11.37,3.85,12.02,1.87,2.73,23.84,2.47,26.84,6.43.63.83.95,2.43,1.1,3.51-.61,6.86-.55,13.77,0,20.62-1.67,9.22-25.65,6.35-27.72,9.83-.78,1.31-4.26,10.86-4.06,12.12.66,4.19,14.45,17.22,14.03,21.72-.22,2.33-16.66,18.85-18.91,19.24-7.17.98-17-12.31-22.87-13.26-.62-.1-11.48,3.51-12,3.87-3.14,2.19-1.57,24.36-8.14,27.15-3.36,1.43-24.09,1.56-26.53-.78-3.43-3.3-3.38-23.87-5.36-26.09-.39-.43-10.31-4.06-10.88-4.14-5.49-.85-17.36,14.48-24.46,13.24-2.24-.39-18.69-16.91-18.91-19.24-.4-4.37,13.14-17.4,14.04-21.75.13-.64-3.72-11.94-4.18-12.4-1.42-1.45-19.53-2.73-23.75-4.61-2.53-1.13-2.07-1.82-2.83-3.87-.87-7.88-.95-15.83,0-23.72.97-2.33.08-2.35,3.25-3.45,3.56-1.23,22.75-2.85,23.61-4.45.43-.8,4.02-11.35,3.92-11.98-.91-5.69-14.46-15.89-13.26-22.87.39-2.26,16.94-18.69,19.24-18.91,4.47-.41,17.62,13.18,21.75,14.04.64.13,11.94-3.72,12.4-4.18,1.6-1.56,2.71-19.42,4-23.32.83-2.5.88-2.86,3.45-3.26ZM850.81,327.61c-2.65,6.65-1.95,16.56-4.39,21.91-1.96,4.32-7.44,3.94-11.06,5.44-9.2,3.8-8.63,7.35-18.51.94-4.02-2.61-10.2-10.63-15.08-7.72-.51.31-5.98,5.88-6.16,6.28-2.2,4.84,11.96,15.67,11.95,22.13,0,3.57-7.38,16.91-8.92,21.04-7.27,2.64-15.36,3.55-23.1,4.22-1.66.53-1.66,13.92,0,14.44,5.3.76,19.28,1.29,23.1,4.22.91.7,8.96,19.67,8.94,21.06-.08,5.55-12.11,15.72-12.51,19.62-.3,2.94,7.04,10.42,10.38,9.33,4.7-1.53,12.87-11.42,18.12-11.96,3.91-.4,7.53,2.92,11.05,4.33,5.93,2.37,10.26.71,12.38,8.24,1.07,3.8,1.89,17.45,3.8,19.4,1.74,1.78,10.77,1.64,12.37,0,3.99-4.08-.14-21.13,8.25-25.27,2.37-1.17,13.21-5.64,15.45-6.23,1.27-.33,2.16-.61,3.54-.47,5.05.52,16.26,12.45,19.71,12.36,2.05-.06,9.04-7.28,8.79-9.73-.38-3.74-12.33-14.61-13.41-19.63,3.14-3.9,6.96-19.15,9.69-21.21,4.2-3.17,20.52-2.42,23.26-5.1,1.64-1.61,1.78-10.64,0-12.37-2.47-2.41-17.56-2.42-21.91-4.39s-7.62-17.44-11.04-21.92c.13-3.88,12.62-15.93,13.23-19.82.46-2.9-7.14-10.34-10.47-9.4-3.81,1.07-14.26,12.88-18.8,12.86-4.54-3.79-19.82-6.07-21.91-10.7-2.5-5.55-1.92-15.56-4.38-21.91-.15-.39.35-1.54-.11-1.91-1.08-.85-9.34.31-11.61-.19-1.27.25-.44,1.58-.65,2.11Z"/>
      <path class="cls-21" d="M948.77,419.38c-1.72-5.91-1.73-14.63,0-20.62.49,3.65.62,17.22,0,20.62Z"/>
      <path class="cls-7" d="M861.12,420.42c-.53,7.95-12.25,8.75-15.47,3.09-.93-18.51,10.46-15.75,17.54-25.25,6.61-8.87.85-17.62-9.77-17.06-10.88.57-10,11.38-10.87,11.38h-14.44c-1.91-32.22,53.34-33.3,54.68-2.53.69,15.73-13.7,18.11-20.9,27.59-.6.79-.6,2.64-.78,2.78Z"/>
      <circle class="cls-7" cx="853.85" cy="444.62" r="10.25"/>
      <path class="cls-21" d="M861.12,420.42c1.81,8.14-8.91,8.79-14.22,6.51-2.03-.87-1.16-1.75-1.25-3.42,1.99,2.67,11.64,2.99,12.95,1.07.77-1.12.13-3.58.52-4.12.26-.37,1.74.16,2-.05Z"/>
    </g>
    <g>
      <rect class="cls-1" x="710.73" y="548.19" width="298.56" height="105.04"/>
      <path class="cls-20" d="M717.18,588.21v-40.02h14.88c12.48,0,20.94,8.28,20.94,20.04s-8.46,19.98-20.94,19.98h-14.88ZM724.2,582.03h7.86c8.7,0,13.74-6.24,13.74-13.8s-4.8-13.86-13.74-13.86h-7.86v27.66Z"/>
      <path class="cls-20" d="M760.2,573.69c0-8.28,5.7-15.18,14.88-15.18s14.94,6.9,14.94,15.18-5.64,15.24-14.94,15.24-14.88-6.9-14.88-15.24ZM783.48,573.69c0-5.1-3-9.6-8.4-9.6s-8.34,4.5-8.34,9.6,3,9.66,8.34,9.66,8.4-4.5,8.4-9.66Z"/>
      <path class="cls-20" d="M811.98,558.51c5.64,0,9.06,2.4,11.1,5.16l-4.14,3.84c-1.62-2.28-3.84-3.42-6.66-3.42-5.28,0-8.76,3.96-8.76,9.6s3.48,9.66,8.76,9.66c2.82,0,5.04-1.2,6.66-3.42l4.14,3.84c-2.04,2.76-5.46,5.16-11.1,5.16-8.82,0-15-6.42-15-15.24s6.18-15.18,15-15.18Z"/>
      <path class="cls-20" d="M850.56,588.21v-3.84c-2.1,2.34-5.7,4.56-10.26,4.56-6.24,0-9.3-3.24-9.3-9.18v-20.52h6.3v18.24c0,4.5,2.28,5.88,5.82,5.88,3.18,0,5.94-1.8,7.44-3.78v-20.34h6.3v28.98h-6.3Z"/>
      <path class="cls-20" d="M902.94,588.21v-18.9c0-3.12-1.38-5.22-4.74-5.22-2.82,0-5.46,1.98-6.72,3.84v20.28h-6.3v-18.9c0-3.12-1.38-5.22-4.8-5.22-2.76,0-5.34,1.98-6.66,3.9v20.22h-6.3v-28.98h6.3v3.96c1.2-1.8,5.04-4.68,9.42-4.68s6.96,2.16,7.92,5.34c1.68-2.64,5.52-5.34,9.84-5.34,5.34,0,8.34,2.88,8.34,8.76v20.94h-6.3Z"/>
      <path class="cls-20" d="M932.7,558.51c8.7,0,14.28,6.66,14.28,15.78v1.5h-22.38c.48,4.38,3.78,7.98,9.24,7.98,2.82,0,6.18-1.14,8.22-3.18l2.88,4.14c-2.88,2.76-7.14,4.2-11.76,4.2-8.7,0-15.18-6.06-15.18-15.24,0-8.4,6.12-15.18,14.7-15.18ZM924.54,571.35h16.32c-.12-3.42-2.46-7.68-8.16-7.68-5.4,0-7.86,4.14-8.16,7.68Z"/>
      <path class="cls-20" d="M975.18,588.21v-18.12c0-4.5-2.28-6-5.82-6-3.24,0-6,1.92-7.44,3.9v20.22h-6.3v-28.98h6.3v3.96c1.92-2.28,5.64-4.68,10.2-4.68,6.24,0,9.36,3.36,9.36,9.3v20.4h-6.3Z"/>
      <path class="cls-20" d="M993.3,581.49v-16.74h-4.8v-5.52h4.8v-7.92h6.3v7.92h5.88v5.52h-5.88v15.18c0,1.98.96,3.42,2.76,3.42,1.2,0,2.34-.48,2.82-1.02l1.5,4.74c-1.14,1.08-3,1.86-5.94,1.86-4.86,0-7.44-2.64-7.44-7.44Z"/>
    </g>
  </g>
  <g>
    <circle class="cls-6" cx="1505.99" cy="470.69" r="206.96"/>
    <g>
      <path class="cls-5" d="M1497.75,369.62c1.89,1.85,11.29,13.15,12.97,12.85,17.48-16.28,33.13-34.68,51.45-49.96,16.06-6.14,31.06,8.63,23.5,24.38-41.45,43.9-85.33,85.68-127.7,128.77-8.83,4.6-19.16,5.14-28.43,8.64-3.08.31-5.65-2.26-5.34-5.34l7.89-27.41,43.11-43.29.76-1.67-55.51-55.61c-.92-.92-1.15-2.02-.42-3.11l32.64-31.78,1.8.86c13.97,14.69,28.82,28.49,43.28,42.67ZM1431.96,357.85c-.27.79-1.84,1.45-.06,3.12l51.2,49.35,16.68-16.83c.61-1.62-3.8-2.51-3.54-4.31.34-2.38,3.81-3.51,3.52-5.21-.12-.71-3.64-4.2-4.66-4.02-2.15.37-5.9,8.25-9.21,6.78-.25-.11-3.71-3.59-3.73-3.86-.34-3.46,7.42-7.26,7.03-9.48-.09-.52-3.5-3.93-4.02-4.02-1.95-.34-3.34,4.57-6.33,3.25-.25-.11-3.71-3.59-3.73-3.86-.3-3.03,3.83-4.1,3.51-5.95-.09-.52-3.5-3.93-4.02-4.02-2.21-.39-6.02,7.37-9.48,7.03-.27-.03-3.75-3.49-3.86-3.73-1.49-3.37,7.19-7.51,6.78-9.85-.09-.52-3.5-3.93-4.02-4.02-1.85-.32-2.93,3.81-5.95,3.51-.27-.03-3.75-3.49-3.86-3.73-1.79-4.04,7.41-3.65-.21-10.41-.28-.25-.13-1-1.29-.94-.8-.06-1.25.52-1.84.89-1.99,1.26-15.88,15.33-17.64,17.65-.85,1.11-.86,1.48-1.26,2.67ZM1559.74,344.98l-120.38,120.38,13.75,13.75,120.38-120.38-13.75-13.75Z"/>
      <path class="cls-5" d="M1561.52,497.1c-1.03.74-1.39,3.21-4.01.93l-52.27-52.68c-1.03-2.4,3.19-7.05,5.16-6.03l48.21,47.95c2.34.93,2.24-1.42,3.75-2.98,5.9-6.11,12.06-12.13,18.53-17.62l-1.28-2.18c-1.62,1.35-2.76,3.81-5.2,3.56-.27-.03-3.75-3.49-3.86-3.73-1.58-3.56,7.79-5.32-.77-10.35-2.27-.4-4.8,6.43-8.76,7.02-.29.04-4.45-3.45-4.57-3.72-1.5-3.36,7.19-7.51,6.78-9.85-.09-.52-3.5-3.93-4.02-4.02-1.85-.32-2.93,3.81-5.95,3.51-.27-.03-3.75-3.49-3.86-3.73-1.39-3.15,7.51-6.04-.22-10.02-2.75-1.42-5.21,6.09-9.31,6.69-.29.04-4.45-3.45-4.57-3.72-1.5-3.36,7.19-7.51,6.78-9.85-.09-.52-3.5-3.93-4.02-4.02-1.98-.35-5.1,7.82-10.07-1.35.22-1.41,8.3-10.04,9.45-10.02l1.64.65,46.83,46.22c.77,2.51,5.89,5.52,6.38,7.35.61,2.3-1.21,2.27-1.67,2.91-9.19,10.1-18.97,19.88-29.08,29.08Z"/>
      <path class="cls-5" d="M1590.6,468.02c-4.36,6.07-23.02,24.72-29.08,29.08l29.08-29.08Z"/>
      <path class="cls-5" d="M1453.99,337.58c-8.39,5.11-14.2,14.26-22.03,20.27.4-1.19.41-1.56,1.26-2.67,1.76-2.32,15.65-16.38,17.64-17.65.59-.37,1.04-.95,1.84-.89,1.16-.06,1.01.69,1.29.94Z"/>
    </g>
    <g>
      <rect class="cls-1" x="1356.16" y="545.6" width="307.48" height="100.65"/>
      <path class="cls-17" d="M1396.29,585.62l-7.8-29.52-7.74,29.52h-7.5l-11.46-40.02h7.86l7.8,30.84,8.28-30.84h5.58l8.28,30.84,7.74-30.84h7.86l-11.4,40.02h-7.5Z"/>
      <path class="cls-17" d="M1421.32,547.94c0-2.16,1.8-3.9,3.9-3.9s3.9,1.74,3.9,3.9-1.74,3.9-3.9,3.9-3.9-1.74-3.9-3.9ZM1422.1,585.62v-28.98h6.3v28.98h-6.3Z"/>
      <path class="cls-17" d="M1438.96,585.62v-28.98h6.3v4.26c2.16-2.76,5.64-4.92,9.42-4.92v6.24c-.54-.12-1.2-.18-1.98-.18-2.64,0-6.18,1.8-7.44,3.84v19.74h-6.3Z"/>
      <path class="cls-17" d="M1475.08,555.92c8.7,0,14.28,6.66,14.28,15.78v1.5h-22.38c.48,4.38,3.78,7.98,9.24,7.98,2.82,0,6.18-1.14,8.22-3.18l2.88,4.14c-2.88,2.76-7.14,4.2-11.76,4.2-8.7,0-15.18-6.06-15.18-15.24,0-8.4,6.12-15.18,14.7-15.18ZM1466.92,568.76h16.32c-.12-3.42-2.46-7.68-8.16-7.68-5.4,0-7.86,4.14-8.16,7.68Z"/>
      <path class="cls-17" d="M1505.79,562.16v23.46h-6.3v-23.46h-4.8v-5.52h4.8v-1.62c0-6.48,3.84-10.02,9.18-10.02,1.98,0,3.78.42,5.04,1.14l-1.38,4.62c-.72-.42-1.62-.6-2.52-.6-2.46,0-4.02,1.62-4.02,4.86v1.62h5.88v5.52h-5.88Z"/>
      <path class="cls-17" d="M1518.87,585.62v-28.98h6.3v4.26c2.16-2.76,5.64-4.92,9.42-4.92v6.24c-.54-.12-1.2-.18-1.98-.18-2.64,0-6.18,1.8-7.44,3.84v19.74h-6.3Z"/>
      <path class="cls-17" d="M1559.79,585.62v-3.12c-2.16,2.46-5.52,3.84-9.36,3.84-4.74,0-10.08-3.18-10.08-9.6s5.34-9.42,10.08-9.42c3.9,0,7.26,1.26,9.36,3.72v-4.32c0-3.36-2.76-5.4-6.78-5.4-3.24,0-6.06,1.2-8.58,3.66l-2.58-4.38c3.36-3.18,7.56-4.68,12.18-4.68,6.42,0,12.06,2.7,12.06,10.5v19.2h-6.3ZM1559.79,574.64c-1.44-1.98-4.14-3-6.9-3-3.54,0-6.18,2.04-6.18,5.22s2.64,5.16,6.18,5.16c2.76,0,5.46-1.02,6.9-3v-4.38Z"/>
      <path class="cls-17" d="M1612.17,585.62v-18.9c0-3.12-1.38-5.22-4.74-5.22-2.82,0-5.46,1.98-6.72,3.84v20.28h-6.3v-18.9c0-3.12-1.38-5.22-4.8-5.22-2.76,0-5.34,1.98-6.66,3.9v20.22h-6.3v-28.98h6.3v3.96c1.2-1.8,5.04-4.68,9.42-4.68s6.96,2.16,7.92,5.34c1.68-2.64,5.52-5.34,9.84-5.34,5.34,0,8.34,2.88,8.34,8.76v20.94h-6.3Z"/>
      <path class="cls-17" d="M1641.93,555.92c8.7,0,14.28,6.66,14.28,15.78v1.5h-22.38c.48,4.38,3.78,7.98,9.24,7.98,2.82,0,6.18-1.14,8.22-3.18l2.88,4.14c-2.88,2.76-7.14,4.2-11.76,4.2-8.7,0-15.18-6.06-15.18-15.24,0-8.4,6.12-15.18,14.7-15.18ZM1633.77,568.76h16.32c-.12-3.42-2.46-7.68-8.16-7.68-5.4,0-7.86,4.14-8.16,7.68Z"/>
    </g>
  </g>
  <g>
    <circle class="cls-6" cx="2154.61" cy="470.69" r="206.96"/>
    <g>
      <path class="cls-13" d="M2067.09,329.98h174.8c5.98.82,10.97,7.49,11.68,13.37v141.06c-.78,6.52-5.75,11.67-11.65,13.99l-171.95.57c-6.92-1.15-11.46-5.16-13.37-11.68-1.29-48.95-1.29-97.89,0-146.83,1.51-5.17,4.93-9.72,10.49-10.49ZM2068.26,357.95h172.47c1.11-.36,2.07-1.16,2.33-2.33.76-3.37.11-8.5-1.17-11.65-.32-.8.06-2.23-1.09-2.94l-172.62-.04c-.8.56-2.06,13.62-1.88,15.28.11,1.01,1.11,1.43,1.95,1.69ZM2070.59,488.55h172.55s0-120.82,0-120.82h-176.76s0,120.82,0,120.82h172.01s4.75,0,4.75,0v-4.75s0-114.2,0-114.2v-1.88s-176.76,0-176.76,0v120.82s4.21,0,4.21,0Z"/>
      <rect class="cls-10" x="2066.38" y="367.72" width="176.76" height="120.82"/>
      <path class="cls-16" d="M2207.71,386.1c7.27-2.54,8.73,3.19,6.43,8.76-1.2,2.91-15.5,24.43-17.69,26.59-1.66,1.64-3.43,3.13-5.87,2.45s-17.52-15.88-18.14-18.15c-1.34-4.84,3.71-6.94,8.03-5.63,2.9.88,8.3,9.68,10.69,9.09,3.66-3.34,13.22-21.96,16.55-23.12Z"/>
      <path class="cls-16" d="M2207.71,432.72c7.27-2.54,8.73,3.19,6.43,8.76-1.2,2.91-15.5,24.43-17.69,26.59-1.66,1.64-3.43,3.13-5.87,2.45-2.34-.65-17.52-15.88-18.14-18.15-1.34-4.84,3.71-6.94,8.03-5.63,2.9.88,8.3,9.68,10.69,9.09,3.66-3.34,13.22-21.96,16.55-23.12Z"/>
      <path class="cls-23" d="M2097.39,399.9c17.84-.4,35.71-.4,53.61,0,6.65,1,5.05,9.06-.83,10.24-15.61-.65-33.39,1.72-48.75.3-9.8-.91-11.08-9.49-4.02-10.54Z"/>
      <path class="cls-23" d="M2097.39,446.51c17.9-.4,35.77-.4,53.61,0,7.06,1.06,5.77,9.64-4.02,10.54-15.35,1.42-33.14-.95-48.75-.3-5.89-1.18-7.48-9.23-.83-10.24Z"/>
      <circle class="cls-22" cx="2075.25" cy="348.75" r="5.35"/>
      <circle class="cls-22" cx="2089.24" cy="348.75" r="5.35"/>
      <circle class="cls-22" cx="2103.22" cy="348.75" r="5.35"/>
    </g>
    <g>
      <rect class="cls-1" x="2017.97" y="545.6" width="273.27" height="105.04"/>
      <path class="cls-14" d="M2072.56,585.62v-40.02h7.02v40.02h-7.02Z"/>
      <path class="cls-14" d="M2109.88,585.62v-18.12c0-4.5-2.28-6-5.82-6-3.24,0-6,1.92-7.44,3.9v20.22h-6.3v-28.98h6.3v3.96c1.92-2.28,5.64-4.68,10.2-4.68,6.24,0,9.36,3.36,9.36,9.3v20.4h-6.3Z"/>
      <path class="cls-14" d="M2134.36,585.62l-11.82-28.98h6.72l8.46,21.72,8.46-21.72h6.78l-11.82,28.98h-6.78Z"/>
      <path class="cls-14" d="M2172.22,555.92c8.7,0,14.28,6.66,14.28,15.78v1.5h-22.38c.48,4.38,3.78,7.98,9.24,7.98,2.82,0,6.18-1.14,8.22-3.18l2.88,4.14c-2.88,2.76-7.14,4.2-11.76,4.2-8.7,0-15.18-6.06-15.18-15.24,0-8.4,6.12-15.18,14.7-15.18ZM2164.06,568.76h16.32c-.12-3.42-2.46-7.68-8.16-7.68-5.4,0-7.86,4.14-8.16,7.68Z"/>
      <path class="cls-14" d="M2195.5,577.28c2.04,2.1,6.06,4.08,9.84,4.08s5.7-1.38,5.7-3.54c0-2.52-3.06-3.42-6.6-4.2-4.98-1.08-10.92-2.4-10.92-8.88,0-4.74,4.08-8.82,11.4-8.82,4.92,0,8.64,1.74,11.28,4.08l-2.64,4.44c-1.74-1.98-4.98-3.48-8.58-3.48-3.3,0-5.4,1.2-5.4,3.24,0,2.22,2.88,3,6.3,3.78,5.04,1.08,11.22,2.52,11.22,9.36,0,5.1-4.26,9-12.06,9-4.92,0-9.42-1.56-12.42-4.5l2.88-4.56Z"/>
      <path class="cls-14" d="M2227.12,578.9v-16.74h-4.8v-5.52h4.8v-7.92h6.3v7.92h5.88v5.52h-5.88v15.18c0,1.98.96,3.42,2.76,3.42,1.2,0,2.34-.48,2.82-1.02l1.5,4.74c-1.14,1.08-3,1.86-5.94,1.86-4.86,0-7.44-2.64-7.44-7.44Z"/>
    </g>
  </g>
  <g>
    <circle class="cls-6" cx="2803.22" cy="470.69" r="206.96"/>
    <g>
      <path class="cls-26" d="M2890.44,390.92c1.97,2.85,1.63,5.92.91,9.12-3.16,7.69-8.67,10.77-12.69,17.65.29,1.66,19.82,23.34,22.26,25.22,2.06,1.59,5.41,1.44,6.85,4.55v1.82c-2.68,4.79-8.29,2.57-12.2.8l-22.96-26.32c-2.02-.52-11.54,9.88-14.07,11.38,4.68,6.72,8.48-5.04,13.95-1.43,6.63,4.38-7.32,12.04-9.86,14.43-4.14-1.48-21.32-15.38-24.16-13.96-1.94.97-2.57,3.92-.97,5.58,10.87,9.56,19.64,27.46,33.99,31.66,5.65,1.66,23.37,2.82,26.52,5.16,2.53,1.88,2.1,6.66-1.7,7.35-2.86.52-18.57-2.29-22.34-3.14-18.91-4.27-24.3-15.93-37.01-28.62-8.85,3.72-19.22,13.4-29.11,14.39-1.41.14-3-1.06-4.32-.73-.95.24-4.04,4.39-6.02,1.61-1.97-2.76,2.47-4.4,2.97-5.59.72-1.71.26-3.87.87-5.46.8-2.11,3.1-4.85,3.4-6.72.13-.79-4.5-4.81-5.1-6.71-.77-2.48-.75-6.64.1-9.13.68-1.99,20.4-24.37,23.17-26.96,1.46-1.37,3.51-3.72,5.51-4.09,2.98.59,6.13.72,9.12,0,4.06.15,13.29,2.36,16.8,1.82,2.34-.36,8.93-5.88,11.77-7.45,5.92-3.27,18.36-11.4,24.32-6.23ZM2882.23,399.14c-1.63-.32-5.88,1.16-5.47,3.17.78,3.76,5.6-1.48,5.47-3.17ZM2868.92,414.11c1.28-1.33,3.86-1.68,3.17-4.31-.42-1.63-3.54-4.2-5.39-3.02l-24.58,18.34c-.01.54,7.88,5.27,9.44,5.07,5.81-5.37,11.9-10.38,17.36-16.07ZM2843.94,411.9c-4.57,1.08-10.34-2.28-14.18-.05-2.91,4.52-22.35,23.5-22.09,26.79.16,1.93,2.2,4.38,4.35,2.9l31.92-29.64ZM2828.43,438.34c-.95-.87-6.96,5.1-7.15,6.06-.24,1.22,2.05,4.62,3.17,4.81.57.1,6.6-3.55,6.72-4.08.25-1.12-3.6-4.53-2.74-6.79ZM2816.58,452.02c-2.44-.51-5.1,2.19-4.55,4.55l4.55-4.55Z"/>
      <path class="cls-19" d="M2822.05,330.74l45.59,45.59v11.85c-.95,1.95-4.52,5.17-6.74,4.52-2.9-.85-.96-7.08-.91-9.01.08-2.88-2.47-.93-4.6-.91-10.55.07-25.75,1.15-35.67-.01-1.51-.18-2.68-.22-3.14-1.87v-41.03l-1.32-1.53-71.58,1.06,1.79,151.83h113.07c3.32-.65-1.14-6.25,2.31-8.2,8.81,1.1,10.04,9.59,5.9,15.96l-129.5-.02-.9-1.36v-165.95l.91-.91h84.8ZM2825.7,374.51c2.61.5,23.09.53,25.53,0,.58-.13,1.81-1.06,1.81-1.37-.02-1.97-25.18-23.73-27.79-27.79l-1.07,27.84c.08.73.88,1.2,1.53,1.32Z"/>
      <path class="cls-12" d="M2815.67,403.69c2.48.79-4.31,6.97-4.97,7.34-5.68,3.27-34.57-.66-42.88.84-3.83-.13-4.6-7.41-1.39-8.18h49.24Z"/>
      <path class="cls-25" d="M2794.7,447.46c3.9.9,2.86,6.38,0,7.75-1.51.72-25.5.9-27.63.27-3.25-.96-3.55-7.31-.64-8.02,9.21-1.04,19.04-1.06,28.27,0Z"/>
      <path class="cls-11" d="M2796.52,425.57c2.87,2.21.54,3.91.09,4.62-2.14,3.4-1.79,3.14-6.88,3.64-3.5.35-20.06.53-22.67-.24-3.25-.96-3.55-7.31-.64-8.02,9.94-.93,19.97-.93,30.09,0Z"/>
      <path class="cls-19" d="M2867.64,388.19c-1.72-3.07-1.29-8.55,0-11.85,1.59,2.88,1.48,8.81,0,11.85Z"/>
      <path class="cls-19" d="M2891.35,400.04l-.91-9.12c4.03,3.49,2.54,5.16.91,9.12Z"/>
      <path class="cls-19" d="M2837.55,402.78c-2.02,1.56-7.27,1.51-9.12,0,2.19-.4,6.63-.09,9.12,0Z"/>
    </g>
    <g>
      <rect class="cls-1" x="2671.03" y="545.6" width="273.27" height="105.04"/>
      <path class="cls-15" d="M2734.19,585.62l-8.88-14.94h-6.96v14.94h-7.02v-40.02h17.58c7.92,0,13.08,5.16,13.08,12.54s-4.68,10.98-9.48,11.76l9.78,15.72h-8.1ZM2727.95,551.78h-9.6v12.72h9.6c3.96,0,6.84-2.52,6.84-6.36s-2.88-6.36-6.84-6.36Z"/>
      <path class="cls-15" d="M2762.33,555.92c8.7,0,14.28,6.66,14.28,15.78v1.5h-22.38c.48,4.38,3.78,7.98,9.24,7.98,2.82,0,6.18-1.14,8.22-3.18l2.88,4.14c-2.88,2.76-7.14,4.2-11.76,4.2-8.7,0-15.18-6.06-15.18-15.24,0-8.4,6.12-15.18,14.7-15.18ZM2754.17,568.76h16.32c-.12-3.42-2.46-7.68-8.16-7.68-5.4,0-7.86,4.14-8.16,7.68Z"/>
      <path class="cls-15" d="M2798.45,555.92c5.64,0,9.06,2.4,11.1,5.16l-4.14,3.84c-1.62-2.28-3.84-3.42-6.66-3.42-5.28,0-8.76,3.96-8.76,9.6s3.48,9.66,8.76,9.66c2.82,0,5.04-1.2,6.66-3.42l4.14,3.84c-2.04,2.76-5.46,5.16-11.1,5.16-8.82,0-15-6.42-15-15.24s6.18-15.18,15-15.18Z"/>
      <path class="cls-15" d="M2815.67,571.1c0-8.28,5.7-15.18,14.88-15.18s14.94,6.9,14.94,15.18-5.64,15.24-14.94,15.24-14.88-6.9-14.88-15.24ZM2838.95,571.1c0-5.1-3-9.6-8.4-9.6s-8.34,4.5-8.34,9.6,3,9.66,8.34,9.66,8.4-4.5,8.4-9.66Z"/>
      <path class="cls-15" d="M2854.25,585.62v-28.98h6.3v4.26c2.16-2.76,5.64-4.92,9.42-4.92v6.24c-.54-.12-1.2-.18-1.98-.18-2.64,0-6.18,1.8-7.44,3.84v19.74h-6.3Z"/>
      <path class="cls-15" d="M2897.87,585.62v-3.96c-2.22,2.88-5.58,4.68-9.3,4.68-7.44,0-12.9-5.64-12.9-15.18s5.4-15.24,12.9-15.24c3.6,0,6.96,1.68,9.3,4.74v-15.06h6.3v40.02h-6.3ZM2897.87,565.4c-1.44-2.16-4.5-3.9-7.5-3.9-4.98,0-8.16,4.02-8.16,9.66s3.18,9.6,8.16,9.6c3,0,6.06-1.68,7.5-3.84v-11.52Z"/>
    </g>
  </g>
  <g>
    <path class="cls-3" d="M362.69,276.48c4.08-3,8.15-5.9,12.23-8.69"/>
    <path class="cls-2" d="M401,251.44c92.22-52.63,184.45-50,276.68,7.91"/>
    <path class="cls-3" d="M690.55,267.8c4.08,2.79,8.15,5.68,12.23,8.69"/>
  </g>
  <g>
    <path class="cls-3" d="M1351.73,651.25c-4.08,3-8.15,5.9-12.23,8.69"/>
    <path class="cls-2" d="M1313.42,676.3c-92.23,52.63-184.45,50-276.68-7.91"/>
    <path class="cls-3" d="M1023.87,659.94c-4.08-2.79-8.15-5.68-12.23-8.69"/>
  </g>
  <g>
    <path class="cls-3" d="M1660.09,276.48c4.08-3,8.15-5.9,12.23-8.69"/>
    <path class="cls-2" d="M1698.4,251.44c92.23-52.63,184.45-50,276.68,7.91"/>
    <path class="cls-3" d="M1987.95,267.8c4.08,2.79,8.15,5.68,12.23,8.69"/>
  </g>
  <g>
    <path class="cls-3" d="M2649.13,651.25c-4.08,3-8.15,5.9-12.23,8.69"/>
    <path class="cls-2" d="M2610.82,676.3c-92.23,52.63-184.45,50-276.68-7.91"/>
    <path class="cls-3" d="M2321.27,659.94c-4.08-2.79-8.15-5.68-12.23-8.69"/>
  </g>
</svg>