<?xml version="1.0" encoding="UTF-8"?>
<svg id="Layer_1" data-name="Layer 1" xmlns="http://www.w3.org/2000/svg" viewBox="0 0 1000 460">
  <defs>
    <style>
      .cls-1 {
        fill: #eab9ec;
      }

      .cls-2 {
        fill: #ebbaed;
      }
    </style>
  </defs>
  <path class="cls-2" d="M490.35,47.92c15.18-2.32,30.76-2.34,45.97,0,4.27.69,5.68,1.42,7.49,5.5,3.74,8.44,5.75,43.95,9.57,46.23,1.8,1.08,22.05,8.13,23.46,7.91,7.99-1.23,33.42-28.05,42.12-27.25,4.47.41,36.54,32.25,37.3,36.64,2.05,14.15-23.82,33.13-25.65,44.3-.28,1.73,6.6,22.04,7.46,23.29,3.63,5.29,46.21,4.78,52.02,12.46,1.22,1.61,1.84,4.71,2.12,6.8-1.17,13.29-1.06,26.69,0,39.97-3.24,17.88-49.72,12.31-53.74,19.05-1.51,2.54-8.25,21.05-7.87,23.49,1.28,8.12,28.01,33.39,27.2,42.09-.42,4.52-32.3,36.54-36.64,37.3-13.9,1.9-32.95-23.87-44.32-25.69-1.21-.19-22.26,6.81-23.26,7.51-6.1,4.24-3.04,47.21-15.78,52.63-6.52,2.78-46.7,3.03-51.42-1.52-6.64-6.4-6.55-46.27-10.38-50.57-.75-.84-19.98-7.86-21.1-8.03-10.65-1.65-33.65,28.06-47.4,25.67-4.35-.75-36.23-32.78-36.64-37.3-.78-8.47,25.46-33.73,27.21-42.16.26-1.24-7.21-23.13-8.1-24.04-2.75-2.81-37.85-5.29-46.03-8.93-4.9-2.18-4-3.52-5.49-7.5-1.69-15.27-1.85-30.67,0-45.97,1.88-4.51.16-4.56,6.31-6.69,6.91-2.39,44.1-5.53,45.76-8.63.83-1.56,7.79-22.01,7.59-23.21-1.77-11.03-28.02-30.8-25.69-44.32.76-4.39,32.83-36.23,37.3-36.64,8.67-.8,34.15,25.55,42.16,27.21,1.24.26,23.13-7.21,24.04-8.1,3.09-3.01,5.25-37.64,7.75-45.21,1.6-4.84,1.71-5.54,6.69-6.31ZM502.34,65.9c-5.14,12.89-3.79,32.1-8.5,42.46-3.8,8.37-14.42,7.65-21.43,10.54-17.83,7.37-16.72,14.24-35.88,1.82-7.79-5.05-19.78-20.6-29.23-14.96-1,.59-11.6,11.39-11.95,12.17-4.26,9.39,23.18,30.38,23.17,42.9,0,6.91-14.3,32.78-17.29,40.79-14.09,5.12-29.77,6.89-44.78,8.18-3.23,1.02-3.21,26.98,0,27.98,10.27,1.47,37.37,2.5,44.78,8.18,1.77,1.36,17.37,38.13,17.34,40.83-.15,10.76-23.48,30.46-24.25,38.03-.58,5.7,13.64,20.19,20.12,18.08,9.12-2.97,24.94-22.13,35.13-23.18,7.58-.78,14.6,5.65,21.42,8.38,11.5,4.6,19.88,1.39,24,15.97,2.08,7.37,3.67,33.82,7.36,37.61,3.36,3.45,20.87,3.18,23.98,0,7.74-7.9-.27-40.96,15.98-48.97,4.59-2.26,25.6-10.93,29.94-12.08,2.45-.65,4.19-1.19,6.86-.91,9.8,1.01,31.52,24.14,38.21,23.95,3.97-.11,17.53-14.11,17.04-18.85-.74-7.25-23.9-28.32-26-38.05,6.09-7.56,13.5-37.11,18.79-41.11,8.14-6.15,39.77-4.69,45.08-9.89,3.18-3.12,3.45-20.62,0-23.98-4.78-4.66-34.04-4.68-42.46-8.5-8.09-3.67-14.77-33.81-21.4-42.49.25-7.53,24.46-30.88,25.65-38.41.88-5.63-13.85-20.03-20.29-18.23-7.39,2.07-27.64,24.96-36.43,24.94-8.79-7.34-38.42-11.77-42.46-20.74-4.84-10.76-3.72-30.16-8.5-42.47-.3-.76.69-2.99-.22-3.71-2.1-1.66-18.1.59-22.51-.38-2.46.48-.85,3.07-1.25,4.08Z"/>
  <path class="cls-2" d="M692.21,243.78c-3.34-11.45-3.36-28.36,0-39.97.96,7.08,1.2,33.37,0,39.97Z"/>
  <path class="cls-1" d="M522.33,245.78c-1.03,15.41-23.75,16.97-29.98,6-1.81-35.88,20.27-30.52,34-48.95,12.81-17.19,1.65-34.16-18.93-33.08-21.08,1.11-19.39,22.06-21.06,22.06h-27.98c-3.7-62.45,103.38-64.54,105.99-4.9,1.33,30.49-26.55,35.1-40.51,53.47-1.16,1.53-1.16,5.11-1.52,5.39Z"/>
  <circle class="cls-1" cx="508.23" cy="292.7" r="19.87"/>
  <path class="cls-2" d="M522.33,245.78c3.52,15.78-17.28,17.04-27.56,12.62-3.94-1.69-2.25-3.39-2.42-6.63,3.87,5.17,22.57,5.8,25.1,2.08,1.49-2.18.26-6.93,1.01-7.98.51-.71,3.37.3,3.87-.09Z"/>
</svg>