<?xml version="1.0" encoding="UTF-8"?>
<svg id="Layer_1" data-name="Layer 1" xmlns="http://www.w3.org/2000/svg" viewBox="0 0 1000 460">
  <defs>
    <style>
      .cls-1 {
        fill: #fdfdfe;
      }

      .cls-2 {
        fill: #68c9e0;
      }

      .cls-3 {
        fill: #fefefe;
      }

      .cls-4 {
        fill: #fdfefe;
      }

      .cls-5 {
        fill: #fcfdfd;
      }
    </style>
  </defs>
  <path class="cls-2" d="M321.6,283.12c3.22-20.54,10.67-33.12,29.45-43.71-39.55-36.44-14.39-96.67,37.88-97.9,21.24,5.6,30.36-.94,10.94-17.32-24.4-55.53,58.35-97.54,86.62-41.54,10.24,20.28,3.64,39.15-8.57,55.74,9.51,7.79,18.34,16.88,23.49,28.18,4.96-11.73,13.25-21.54,21.06-30.62-38.59-44.57,21.89-109.18,67.2-65.92,21.28,20.32,19.67,46.64,1.19,68.07l8.61,6.85c57.27-16.44,95.59,52.52,52.5,93.89,12.95,9.47,30.53,25.38,24.9,42.12,4.19,16.56,4.91,33.79,2.15,51.68,1.75,10.44-16.32,14.86-25.08,16.9-25.96,6.06-57.7,3.94-83.52-2.59l-3.36-5.7c6.84,4.53,6.88,29.29,0,33.37,5.68,6.82-10.93,13.11-17.24,15.01-28.13,8.49-68.63,8.31-96.8,0-6.37-1.88-21.55-7.3-17.3-15.02-7.15-3.38-6.59-29.26,0-33.37l-3.33,5.67c-24.62,6.33-53.59,8.28-78.69,3.79-10.3-1.84-28.63-6.15-32.1-15.92-3.99-14.82-3.38-32.41,0-51.68Z"/>
  <path class="cls-3" d="M321.6,283.12c-1.11,5.4,0-224.27,0-224.27l337.37-6.85,22.2,233.27c-1.07,2.22-2.51.78-4.31-4.31-4.62-20.53-15.53-30.7-32.26-41.99,32.59-24.02,27.59-74.17-10.43-88.66-3.87-1.47-12.56-4.26-16.23-4.35-9.03-.21-18.91,4.15-19.24,3.3-1.32-3.43-13.96-11.25-13.96-11.25,0,0,11.69-14.62,13.35-18.71,7.13-17.57.28-36.6-13.81-48.3-44.54-36.98-96.71,29.16-53.88,66.76-16.12,9.25-19.27,20.58-27.48,34.91-5.21,9.1-4.18-2.23-5.97-5.67-6.29-12.13-16.09-21.07-26.77-29.23,21.9-17.8,22.58-47.45,2.27-66.94-.46-.44-9.89-6.9-10.48-7.14-35.93-14.35-73.97,23.63-57.32,59.86,6.84,12.84,11.26,11.63,10.68,15.33-.58,3.7-19.22,6.94-28.06,6.83-21-.26-42.7,16.77-49.13,36.6-7.49,23.12,2.35,41.79,20,56.65-7.64,7.43-18.97,12.23-24.95,21.3-4.67,7.07-10.51,17.44-11.62,22.84Z"/>
  <path class="cls-3" d="M681.17,332.64v75.36h-359.57v-73.21c14.25,6.45,26.07,11.63,42.01,12.89,22.65,1.79,51.16,1.32,72.11-6.43v33.37c0,1.18,5.43,4.77,7.09,5.83,22.85,14.66,94.49,14.61,117.18,0,1.65-1.06,7.08-4.67,7.08-5.84v-33.37c20.38,7.68,47.88,8.16,69.95,6.43,13.83-1.08,32.32-4.82,42.01-15.05.61-1.88,1.33-1.85,2.15,0Z"/>
  <path class="cls-3" d="M523.21,294.71c.61.25,7.53,3.05,13.76,9.65,6.23,6.6,12.5,17.45,13.76,24.2,1.26,6.75.63,30.41,1.26,40.67-32.04,9.26-69.14,9.86-100.95-.23-2.78-26.11-.48-58.07,25.24-72.22,11.99-6.6,34.4-7.14,46.93-2.07Z"/>
  <path class="cls-3" d="M435.34,325.82c-5.59,9.12-84.38,9.71-97.33.58-8.44-40.67,6.26-80.96,53.64-77.8,40.6,2.71,48.81,43.32,43.68,77.22Z"/>
  <path class="cls-3" d="M665.74,325.85c-12.98,9.32-92.49,9.49-98.31-.03-3.12-31.01-1.18-69.23,36.1-76.21,50.26-9.41,69.36,32.75,62.22,76.24Z"/>
  <path class="cls-1" d="M469.29,154.87c8.54,5.83,20.98,26.25,18.27,36.51-.34,1.3-17.91,8.75-22.88,14.12-22.12,23.89-16.94,57.07,7.6,76.54-3.11,1.79-19.54,18.44-21.48,16.14-.18-26.03-14.95-46.12-36.58-59.2,21.39-17.61,30.04-41.83,15.46-67.18-5.55-9.64-22.17-17.16-.05-22.89,13.97-3.62,27.76-2.16,39.66,5.96Z"/>
  <path class="cls-4" d="M551.97,298.18c-1.98,2.28-18.33-14.32-21.48-16.14,25.97-21.71,29.21-56.59,3.53-80-10.73-9.79-20.74-4.2-18.68-21.24,3.76-31.05,46.5-44.9,68.9-23.65-25.8,26.68-24.49,56.43,2.15,81.83-19.27,14.02-36.44,33.73-34.43,59.2Z"/>
  <path class="cls-4" d="M404.84,165.45c.79.46,12.43,12.1,12.89,12.89,18.74,32.34-19.44,69.93-50.71,49.66-6.29-4.08-15.7-16.66-16.9-24-4.82-29.62,27.75-54.17,54.71-38.56Z"/>
  <path class="cls-4" d="M611.71,160.91c34.1-6.02,56.07,43.65,24.54,65.45-48.36,33.43-84.14-54.92-24.54-65.45Z"/>
  <circle class="cls-3" cx="501.19" cy="240.34" r="35.78"/>
  <circle class="cls-5" cx="443.71" cy="103.71" r="28.95"/>
  <path class="cls-4" d="M577.14,125.25c-11.32,10.2-25.25,9.66-36.93.62-14.31-11.07-14.68-34.56-.04-45.12,31.21-22.5,62.22,21.76,36.98,44.5Z"/>
</svg>