<?xml version="1.0" encoding="UTF-8"?>
<svg id="Layer_1" data-name="Layer 1" xmlns="http://www.w3.org/2000/svg" viewBox="0 0 1000 460">
  <defs>
    <style>
      .cls-1 {
        fill: #abe4b5;
      }

      .cls-2 {
        fill: #aae5b5;
      }

      .cls-3 {
        fill: #afeaba;
      }

      .cls-4 {
        fill: #ace5b6;
      }

      .cls-5 {
        fill: #ade9b8;
      }
    </style>
  </defs>
  <path class="cls-5" d="M653.22,178.11c4.16,6.03,3.46,12.52,1.93,19.29-6.68,16.27-18.34,22.79-26.86,37.34.62,3.51,41.94,49.39,47.09,53.37,4.36,3.37,11.44,3.05,14.5,9.62v3.86c-5.67,10.13-17.54,5.44-25.81,1.69l-48.58-55.69c-4.28-1.11-24.43,20.9-29.77,24.09,9.91,14.22,17.94-10.67,29.52-3.03,14.04,9.26-15.49,25.48-20.85,30.53-8.76-3.13-45.11-32.55-51.12-29.55-4.1,2.05-5.43,8.3-2.06,11.81,23.01,20.22,41.56,58.1,71.92,67,11.95,3.5,49.46,5.96,56.13,10.91,5.35,3.97,4.45,14.1-3.59,15.55-6.06,1.09-39.29-4.84-47.27-6.65-40.01-9.05-51.41-33.72-78.33-60.55-18.73,7.88-40.68,28.36-61.6,30.44-2.99.3-6.36-2.24-9.14-1.55-2.01.5-8.55,9.29-12.74,3.42-4.17-5.84,5.23-9.31,6.29-11.83,1.52-3.62.56-8.19,1.83-11.55,1.69-4.46,6.55-10.27,7.2-14.23.27-1.68-9.53-10.17-10.78-14.21-1.64-5.26-1.58-14.06.2-19.32,1.43-4.22,43.17-51.57,49.03-57.04,3.1-2.89,7.42-7.87,11.66-8.65,6.31,1.26,12.97,1.53,19.29,0,8.59.33,28.13,4.98,35.54,3.86,4.96-.76,18.9-12.45,24.91-15.76,12.53-6.92,38.85-24.12,51.46-13.18ZM635.85,195.49c-3.46-.67-12.44,2.45-11.57,6.71,1.64,7.96,11.86-3.14,11.57-6.71ZM607.69,227.18c2.7-2.82,8.17-3.55,6.71-9.13-.9-3.44-7.49-8.88-11.41-6.39l-52,38.8c-.02,1.14,16.68,11.15,19.97,10.72,12.29-11.36,25.17-21.95,36.73-34ZM554.81,222.51c-9.67,2.28-21.88-4.83-30.02-.11-6.17,9.57-47.3,49.73-46.74,56.7.33,4.09,4.66,9.26,9.21,6.14l67.55-62.73ZM522,278.44c-2-1.84-14.72,10.78-15.12,12.82-.51,2.59,4.33,9.78,6.7,10.18,1.21.2,13.97-7.5,14.22-8.63.52-2.37-7.62-9.58-5.8-14.37ZM496.92,307.39c-5.16-1.09-10.8,4.63-9.62,9.64l9.62-9.64Z"/>
  <path class="cls-3" d="M508.5,50.76l96.47,96.47v25.08c-2,4.13-9.56,10.94-14.27,9.56-6.14-1.81-2.03-14.99-1.92-19.07.16-6.09-5.23-1.96-9.74-1.93-22.32.14-54.48,2.44-75.49-.02-3.2-.38-5.67-.47-6.64-3.96v-86.83l-2.8-3.24-151.48,2.24,3.78,321.29h239.26c7.03-1.38-2.41-13.22,4.89-17.36,18.64,2.33,21.25,20.29,12.49,33.76l-274.03-.03-1.9-2.87V52.69l1.93-1.93h179.44ZM516.22,143.38c5.52,1.06,48.87,1.13,54.03,0,1.22-.27,3.83-2.25,3.82-2.89-.03-4.16-53.28-50.22-58.81-58.81l-2.27,58.91c.17,1.54,1.87,2.54,3.24,2.8Z"/>
  <path class="cls-2" d="M495,205.12c5.25,1.68-9.12,14.74-10.51,15.54-12.03,6.92-73.15-1.39-90.74,1.77-8.1-.28-9.73-15.68-2.95-17.31h104.19Z"/>
  <path class="cls-4" d="M450.62,297.74c8.25,1.91,6.05,13.5,0,16.41-3.19,1.53-53.96,1.9-58.47.57-6.87-2.02-7.52-15.48-1.35-16.98,19.5-2.2,40.28-2.25,59.81,0Z"/>
  <path class="cls-1" d="M454.48,251.43c6.06,4.67,1.13,8.27.19,9.77-4.53,7.19-3.79,6.64-14.55,7.71-7.4.73-42.46,1.12-47.96-.5-6.87-2.02-7.52-15.48-1.35-16.98,21.04-1.98,42.27-1.98,63.67,0Z"/>
  <path class="cls-3" d="M604.98,172.32c-3.64-6.5-2.72-18.1,0-25.08,3.36,6.09,3.12,18.63,0,25.08Z"/>
  <path class="cls-3" d="M655.15,197.4l-1.93-19.29c8.52,7.39,5.37,10.92,1.93,19.29Z"/>
  <path class="cls-3" d="M541.31,203.19c-4.27,3.3-15.39,3.2-19.29,0,4.63-.85,14.03-.2,19.29,0Z"/>
</svg>