<?xml version="1.0" encoding="UTF-8"?>
<svg id="Layer_1" data-name="Layer 1" xmlns="http://www.w3.org/2000/svg" viewBox="0 0 1000 460">
  <defs>
    <style>
      .cls-1 {
        fill: #f8e0aa;
      }

      .cls-2 {
        fill: #fff;
      }

      .cls-3 {
        fill: #f7dda6;
      }

      .cls-4 {
        fill: #f2deab;
      }

      .cls-5 {
        fill: #f5dea8;
      }
    </style>
  </defs>
  <path class="cls-1" d="M317.03,58.31h368.22c12.59,1.73,23.11,15.78,24.6,28.17v297.14c-1.65,13.73-12.12,24.58-24.53,29.47l-362.21,1.21c-14.58-2.42-24.14-10.87-28.17-24.6-2.71-103.11-2.71-206.21,0-309.3,3.19-10.89,10.38-20.48,22.09-22.09ZM319.49,117.23h363.31c2.34-.76,4.35-2.45,4.91-4.91,1.61-7.1.22-17.9-2.45-24.55-.68-1.69.12-4.7-2.29-6.2l-363.63-.09c-1.69,1.17-4.34,28.69-3.96,32.19.23,2.13,2.34,3,4.12,3.56ZM324.4,392.34h363.48s0-254.52,0-254.52h-372.34s0,254.52,0,254.52h362.35s10,0,10,0v-10s0-240.57,0-240.57v-3.95s-372.34,0-372.34,0v254.52s8.86,0,8.86,0Z"/>
  <rect class="cls-2" x="315.54" y="137.83" width="372.34" height="254.52"/>
  <path class="cls-3" d="M613.24,176.54c15.31-5.35,18.4,6.71,13.55,18.46-2.52,6.12-32.66,51.45-37.27,56.01-3.5,3.46-7.23,6.58-12.36,5.16-4.93-1.36-36.9-33.45-38.22-38.22-2.83-10.19,7.82-14.62,16.92-11.85,6.11,1.86,17.48,20.38,22.52,19.14,7.71-7.04,27.85-46.25,34.86-48.7Z"/>
  <path class="cls-3" d="M613.24,274.73c15.31-5.35,18.4,6.71,13.55,18.46-2.52,6.12-32.66,51.45-37.27,56.01-3.5,3.46-7.23,6.58-12.36,5.16-4.93-1.36-36.9-33.45-38.22-38.22-2.83-10.19,7.82-14.62,16.92-11.85,6.11,1.86,17.48,20.38,22.52,19.14,7.71-7.04,27.85-46.25,34.86-48.7Z"/>
  <path class="cls-5" d="M380.86,205.6c37.58-.84,75.22-.84,112.92,0,14.01,2.12,10.65,19.08-1.75,21.57-32.89-1.37-70.35,3.63-102.69.64-20.64-1.91-23.35-19.98-8.48-22.21Z"/>
  <path class="cls-5" d="M380.86,303.79c37.7-.84,75.34-.84,112.92,0,14.87,2.22,12.16,20.3-8.48,22.21-32.34,2.99-69.8-2.01-102.69-.64-12.4-2.48-15.76-19.45-1.75-21.57Z"/>
  <circle class="cls-4" cx="334.22" cy="97.85" r="11.28"/>
  <circle class="cls-4" cx="363.68" cy="97.85" r="11.28"/>
  <circle class="cls-4" cx="393.13" cy="97.85" r="11.28"/>
</svg>