<?xml version="1.0" encoding="UTF-8"?>
<svg id="Layer_1" data-name="Layer 1" xmlns="http://www.w3.org/2000/svg" viewBox="0 0 1000 460">
  <defs>
    <style>
      .cls-1 {
        fill: #f7d2c7;
      }
    </style>
  </defs>
  <path class="cls-1" d="M470.96,141.62c3.89,3.81,23.24,27.07,26.7,26.46,36-33.53,68.22-71.41,105.95-102.88,33.06-12.65,63.97,17.78,48.39,50.2-85.35,90.4-175.71,176.43-262.96,265.16-18.18,9.48-39.45,10.58-58.54,17.79-6.34.64-11.64-4.66-11-11l16.26-56.45,88.77-89.14,1.57-3.44-114.31-114.5c-1.9-1.89-2.37-4.16-.86-6.39l67.21-65.43,3.71,1.76c28.77,30.24,59.34,58.67,89.12,87.86ZM335.48,117.39c-.55,1.63-3.79,2.99-.12,6.42l105.43,101.63,34.35-34.66c1.25-3.34-7.82-5.17-7.29-8.88.7-4.89,7.85-7.23,7.24-10.73-.26-1.45-7.5-8.65-9.6-8.28-4.42.77-12.14,16.98-18.97,13.96-.51-.22-7.63-7.39-7.69-7.94-.71-7.13,15.27-14.96,14.48-19.51-.19-1.07-7.22-8.1-8.28-8.28-4.01-.7-6.88,9.42-13.03,6.7-.51-.22-7.63-7.39-7.69-7.94-.63-6.23,7.89-8.45,7.22-12.26-.19-1.07-7.22-8.1-8.28-8.28-4.56-.8-12.39,15.18-19.51,14.48-.55-.05-7.71-7.18-7.94-7.69-3.07-6.93,14.8-15.47,13.96-20.28-.19-1.07-7.22-8.1-8.28-8.28-3.8-.67-6.02,7.84-12.26,7.22-.55-.06-7.72-7.18-7.94-7.69-3.69-8.33,15.27-7.52-.43-21.44-.57-.51-.26-2.06-2.66-1.93-1.65-.11-2.58,1.07-3.79,1.84-4.1,2.6-32.7,31.57-36.33,36.34-1.74,2.29-1.77,3.05-2.59,5.49ZM598.6,90.88l-247.89,247.89,28.32,28.32,247.89-247.89-28.32-28.32Z"/>
  <path class="cls-1" d="M602.26,404.14c-2.11,1.52-2.87,6.61-8.25,1.91l-107.64-108.48c-2.11-4.94,6.56-14.51,10.62-12.42l99.27,98.75c4.82,1.92,4.62-2.92,7.73-6.14,12.16-12.59,24.83-24.98,38.15-36.28l-2.64-4.48c-3.33,2.77-5.68,7.84-10.71,7.33-.55-.06-7.72-7.18-7.94-7.69-3.25-7.34,16.04-10.96-1.59-21.31-4.67-.83-9.88,13.24-18.04,14.45-.6.09-9.16-7.11-9.41-7.66-3.09-6.91,14.8-15.47,13.96-20.28-.19-1.07-7.22-8.1-8.28-8.28-3.8-.67-6.02,7.84-12.26,7.22-.55-.06-7.72-7.18-7.94-7.69-2.87-6.48,15.46-12.43-.45-20.64-5.67-2.92-10.74,12.53-19.18,13.79-.6.09-9.16-7.11-9.41-7.66-3.09-6.91,14.8-15.47,13.96-20.28-.19-1.07-7.22-8.1-8.28-8.28-4.08-.72-10.5,16.11-20.73-2.77.45-2.91,17.1-20.68,19.45-20.63l3.37,1.33,96.43,95.17c1.59,5.17,12.13,11.37,13.14,15.14,1.27,4.73-2.48,4.68-3.43,6-18.92,20.8-39.07,40.94-59.89,59.89Z"/>
  <path class="cls-1" d="M662.15,344.25c-8.97,12.49-47.4,50.9-59.89,59.89l59.89-59.89Z"/>
  <path class="cls-1" d="M380.85,75.65c-17.28,10.51-29.24,29.37-45.37,41.74.82-2.44.85-3.2,2.59-5.49,3.63-4.77,32.23-33.74,36.33-36.34,1.21-.77,2.14-1.95,3.79-1.84,2.4-.13,2.09,1.42,2.66,1.93Z"/>
</svg>