<?xml version="1.0" encoding="UTF-8"?>
<svg id="Layer_1" data-name="Layer 1" xmlns="http://www.w3.org/2000/svg" viewBox="0 0 1000 460">
  <defs>
    <style>
      .cls-1 {
        fill: #fdfdfe;
      }

      .cls-2 {
        fill: #f7d2c7;
      }

      .cls-3, .cls-4 {
        fill: none;
        stroke: #bfbfbf;
        stroke-miterlimit: 10;
        stroke-width: 8px;
      }

      .cls-4 {
        stroke-dasharray: 36.33 36.33;
      }

      .cls-5 {
        fill: #eab9ec;
      }

      .cls-6 {
        fill: #68c9e0;
      }

      .cls-7 {
        fill: #abe4b5;
      }

      .cls-8 {
        fill: #aae5b5;
      }

      .cls-9 {
        fill: #f8e0aa;
      }

      .cls-10 {
        fill: #fff;
      }

      .cls-11 {
        fill: #f7dda6;
      }

      .cls-12 {
        fill: #fefefe;
      }

      .cls-13 {
        fill: #afeaba;
      }

      .cls-14 {
        fill: #ebbaed;
      }

      .cls-15 {
        fill: #f2deab;
      }

      .cls-16 {
        fill: #f5dea8;
      }

      .cls-17 {
        fill: #fdfefe;
      }

      .cls-18 {
        fill: #ace5b6;
      }

      .cls-19 {
        fill: #ade9b8;
      }

      .cls-20 {
        fill: #fcfdfd;
      }
    </style>
  </defs>
  <g>
    <path class="cls-6" d="M26.94,229.33c.65-4.13,2.15-6.66,5.92-8.78-7.95-7.32-2.89-19.43,7.61-19.68,4.27,1.13,6.1-.19,2.2-3.48-4.9-11.16,11.73-19.6,17.41-8.35,2.06,4.08.73,7.87-1.72,11.2,1.91,1.57,3.69,3.39,4.72,5.66,1-2.36,2.66-4.33,4.23-6.15-7.75-8.96,4.4-21.94,13.51-13.25,4.28,4.08,3.95,9.37.24,13.68l1.73,1.38c11.51-3.3,19.21,10.56,10.55,18.87,2.6,1.9,6.14,5.1,5,8.46.84,3.33.99,6.79.43,10.39.35,2.1-3.28,2.99-5.04,3.4-5.22,1.22-11.6.79-16.79-.52l-.68-1.15c1.37.91,1.38,5.89,0,6.71,1.14,1.37-2.2,2.63-3.46,3.02-5.65,1.71-13.79,1.67-19.46,0-1.28-.38-4.33-1.47-3.48-3.02-1.44-.68-1.32-5.88,0-6.71l-.67,1.14c-4.95,1.27-10.77,1.66-15.81.76-2.07-.37-5.75-1.24-6.45-3.2-.8-2.98-.68-6.51,0-10.39Z"/>
    <path class="cls-12" d="M26.94,229.33c-.22,1.09,0-45.07,0-45.07l67.8-1.38,4.46,46.88c-.22.45-.5.16-.87-.87-.93-4.13-3.12-6.17-6.48-8.44,6.55-4.83,5.55-14.91-2.1-17.82-.78-.3-2.53-.86-3.26-.87-1.81-.04-3.8.83-3.87.66-.27-.69-2.8-2.26-2.8-2.26,0,0,2.35-2.94,2.68-3.76,1.43-3.53.06-7.36-2.77-9.71-8.95-7.43-19.44,5.86-10.83,13.42-3.24,1.86-3.87,4.14-5.52,7.02-1.05,1.83-.84-.45-1.2-1.14-1.26-2.44-3.23-4.24-5.38-5.88,4.4-3.58,4.54-9.54.46-13.45-.09-.09-1.99-1.39-2.11-1.43-7.22-2.88-14.87,4.75-11.52,12.03,1.37,2.58,2.26,2.34,2.15,3.08s-3.86,1.4-5.64,1.37c-4.22-.05-8.58,3.37-9.87,7.36-1.51,4.65.47,8.4,4.02,11.39-1.53,1.49-3.81,2.46-5.01,4.28-.94,1.42-2.11,3.51-2.33,4.59Z"/>
    <path class="cls-12" d="M99.21,239.28v15.15H26.94v-14.71c2.86,1.3,5.24,2.34,8.44,2.59,4.55.36,10.28.26,14.49-1.29v6.71c0,.24,1.09.96,1.42,1.17,4.59,2.95,18.99,2.94,23.55,0,.33-.21,1.42-.94,1.42-1.17v-6.71c4.1,1.54,9.62,1.64,14.06,1.29,2.78-.22,6.49-.97,8.44-3.02.12-.38.27-.37.43,0Z"/>
    <path class="cls-12" d="M67.46,231.66c.12.05,1.51.61,2.77,1.94,1.25,1.33,2.51,3.51,2.77,4.86s.13,6.11.25,8.17c-6.44,1.86-13.9,1.98-20.29-.05-.56-5.25-.1-11.67,5.07-14.51,2.41-1.33,6.91-1.43,9.43-.42Z"/>
    <path class="cls-12" d="M49.8,237.91c-1.12,1.83-16.96,1.95-19.56.12-1.7-8.17,1.26-16.27,10.78-15.64,8.16.54,9.81,8.71,8.78,15.52Z"/>
    <path class="cls-12" d="M96.11,237.92c-2.61,1.87-18.59,1.91-19.76,0-.63-6.23-.24-13.91,7.25-15.32,10.1-1.89,13.94,6.58,12.5,15.32Z"/>
    <path class="cls-1" d="M56.62,203.55c1.72,1.17,4.22,5.28,3.67,7.34-.07.26-3.6,1.76-4.6,2.84-4.45,4.8-3.4,11.47,1.53,15.38-.62.36-3.93,3.71-4.32,3.24-.04-5.23-3-9.27-7.35-11.9,4.3-3.54,6.04-8.41,3.11-13.5-1.11-1.94-4.46-3.45,0-4.6,2.81-.73,5.58-.43,7.97,1.2Z"/>
    <path class="cls-17" d="M73.24,232.35c-.4.46-3.68-2.88-4.32-3.24,5.22-4.36,5.87-11.37.71-16.08-2.16-1.97-4.17-.84-3.75-4.27.76-6.24,9.35-9.02,13.85-4.75-5.19,5.36-4.92,11.34.43,16.45-3.87,2.82-7.32,6.78-6.92,11.9Z"/>
    <path class="cls-17" d="M43.67,205.68c.16.09,2.5,2.43,2.59,2.59,3.77,6.5-3.91,14.06-10.19,9.98-1.27-.82-3.16-3.35-3.4-4.82-.97-5.95,5.58-10.89,11-7.75Z"/>
    <path class="cls-17" d="M85.25,204.77c6.85-1.21,11.27,8.77,4.93,13.15-9.72,6.72-16.91-11.04-4.93-13.15Z"/>
    <circle class="cls-12" cx="63.03" cy="220.73" r="7.19"/>
    <circle class="cls-20" cx="51.48" cy="193.27" r="5.82"/>
    <path class="cls-17" d="M78.3,197.6c-2.28,2.05-5.07,1.94-7.42.13-2.88-2.23-2.95-6.95,0-9.07,6.27-4.52,12.51,4.37,7.43,8.94Z"/>
  </g>
  <g>
    <path class="cls-14" d="M267.21,182.15c2.95-.45,5.98-.45,8.94,0,.83.13,1.1.28,1.46,1.07.73,1.64,1.12,8.55,1.86,8.99.35.21,4.29,1.58,4.56,1.54,1.55-.24,6.5-5.46,8.19-5.3.87.08,7.11,6.27,7.25,7.13.4,2.75-4.63,6.44-4.99,8.62-.06.34,1.28,4.29,1.45,4.53.71,1.03,8.99.93,10.12,2.42.24.31.36.92.41,1.32-.23,2.58-.21,5.19,0,7.78-.63,3.48-9.67,2.4-10.45,3.71-.29.49-1.61,4.09-1.53,4.57.25,1.58,5.45,6.49,5.29,8.19-.08.88-6.28,7.11-7.13,7.25-2.7.37-6.41-4.64-8.62-5-.23-.04-4.33,1.32-4.52,1.46-1.19.83-.59,9.18-3.07,10.24-1.27.54-9.08.59-10-.29-1.29-1.24-1.27-9-2.02-9.84-.15-.16-3.89-1.53-4.1-1.56-2.07-.32-6.55,5.46-9.22,4.99-.85-.15-7.05-6.38-7.13-7.25-.15-1.65,4.95-6.56,5.29-8.2.05-.24-1.4-4.5-1.57-4.68-.53-.55-7.36-1.03-8.95-1.74-.95-.42-.78-.68-1.07-1.46-.33-2.97-.36-5.97,0-8.94.37-.88.03-.89,1.23-1.3,1.34-.46,8.58-1.08,8.9-1.68.16-.3,1.51-4.28,1.48-4.51-.34-2.15-5.45-5.99-5-8.62.15-.85,6.39-7.05,7.25-7.13,1.69-.16,6.64,4.97,8.2,5.29.24.05,4.5-1.4,4.68-1.57.6-.59,1.02-7.32,1.51-8.79.31-.94.33-1.08,1.3-1.23ZM269.54,185.65c-1,2.51-.74,6.24-1.65,8.26-.74,1.63-2.81,1.49-4.17,2.05-3.47,1.43-3.25,2.77-6.98.35-1.51-.98-3.85-4.01-5.69-2.91-.19.12-2.26,2.22-2.32,2.37-.83,1.83,4.51,5.91,4.51,8.34,0,1.34-2.78,6.38-3.36,7.93-2.74,1-5.79,1.34-8.71,1.59-.63.2-.62,5.25,0,5.44,2,.29,7.27.49,8.71,1.59.34.26,3.38,7.42,3.37,7.94-.03,2.09-4.57,5.93-4.72,7.4-.11,1.11,2.65,3.93,3.91,3.52,1.77-.58,4.85-4.3,6.83-4.51,1.47-.15,2.84,1.1,4.17,1.63,2.24.89,3.87.27,4.67,3.11.41,1.43.71,6.58,1.43,7.32.65.67,4.06.62,4.67,0,1.51-1.54-.05-7.97,3.11-9.53.89-.44,4.98-2.13,5.82-2.35.48-.13.82-.23,1.33-.18,1.91.2,6.13,4.69,7.43,4.66.77-.02,3.41-2.74,3.32-3.67-.14-1.41-4.65-5.51-5.06-7.4,1.19-1.47,2.63-7.22,3.65-8,1.58-1.2,7.74-.91,8.77-1.92.62-.61.67-4.01,0-4.67-.93-.91-6.62-.91-8.26-1.65-1.57-.71-2.87-6.58-4.16-8.26.05-1.46,4.76-6.01,4.99-7.47.17-1.1-2.69-3.9-3.95-3.55-1.44.4-5.38,4.86-7.09,4.85-1.71-1.43-7.47-2.29-8.26-4.03-.94-2.09-.72-5.87-1.65-8.26-.06-.15.13-.58-.04-.72-.41-.32-3.52.12-4.38-.07-.48.09-.17.6-.24.79Z"/>
    <path class="cls-14" d="M306.47,220.24c-.65-2.23-.65-5.52,0-7.78.19,1.38.23,6.49,0,7.78Z"/>
    <path class="cls-5" d="M273.43,220.63c-.2,3-4.62,3.3-5.83,1.17-.35-6.98,3.94-5.94,6.61-9.52,2.49-3.34.32-6.64-3.68-6.43-4.1.22-3.77,4.29-4.1,4.29h-5.44c-.72-12.15,20.11-12.55,20.62-.95.26,5.93-5.16,6.83-7.88,10.4-.23.3-.23.99-.29,1.05Z"/>
    <circle class="cls-5" cx="270.68" cy="229.76" r="3.87"/>
    <path class="cls-14" d="M273.43,220.63c.68,3.07-3.36,3.32-5.36,2.46-.77-.33-.44-.66-.47-1.29.75,1.01,4.39,1.13,4.88.4.29-.42.05-1.35.2-1.55.1-.14.66.06.75-.02Z"/>
  </g>
  <g>
    <path class="cls-2" d="M483.62,201.48c.71.7,4.26,4.96,4.89,4.84,6.59-6.14,12.49-13.08,19.4-18.84,6.05-2.32,11.71,3.25,8.86,9.19-15.63,16.55-32.17,32.3-48.15,48.55-3.33,1.74-7.22,1.94-10.72,3.26-1.16.12-2.13-.85-2.01-2.01l2.98-10.33,16.25-16.32.29-.63-20.93-20.96c-.35-.35-.43-.76-.16-1.17l12.31-11.98.68.32c5.27,5.54,10.87,10.74,16.32,16.09ZM458.81,197.04c-.1.3-.69.55-.02,1.18l19.3,18.61,6.29-6.35c.23-.61-1.43-.95-1.33-1.63.13-.9,1.44-1.32,1.33-1.96-.05-.27-1.37-1.58-1.76-1.52-.81.14-2.22,3.11-3.47,2.56-.09-.04-1.4-1.35-1.41-1.45-.13-1.3,2.8-2.74,2.65-3.57-.03-.2-1.32-1.48-1.52-1.52-.73-.13-1.26,1.72-2.38,1.23-.09-.04-1.4-1.35-1.41-1.45-.11-1.14,1.44-1.55,1.32-2.24-.03-.2-1.32-1.48-1.52-1.52-.83-.15-2.27,2.78-3.57,2.65-.1,0-1.41-1.32-1.45-1.41-.56-1.27,2.71-2.83,2.56-3.71-.03-.2-1.32-1.48-1.52-1.52-.7-.12-1.1,1.44-2.24,1.32-.1-.01-1.41-1.32-1.45-1.41-.68-1.52,2.8-1.38-.08-3.93-.11-.09-.05-.38-.49-.35-.3-.02-.47.2-.69.34-.75.48-5.99,5.78-6.65,6.65-.32.42-.32.56-.47,1.01ZM506.99,192.19l-45.39,45.39,5.19,5.19,45.39-45.39-5.19-5.19Z"/>
    <path class="cls-2" d="M507.66,249.55c-.39.28-.53,1.21-1.51.35l-19.71-19.86c-.39-.9,1.2-2.66,1.94-2.27l18.17,18.08c.88.35.85-.53,1.42-1.12,2.23-2.31,4.55-4.57,6.98-6.64l-.48-.82c-.61.51-1.04,1.43-1.96,1.34-.1-.01-1.41-1.32-1.45-1.41-.59-1.34,2.94-2.01-.29-3.9-.86-.15-1.81,2.42-3.3,2.65-.11.02-1.68-1.3-1.72-1.4-.57-1.27,2.71-2.83,2.56-3.71-.03-.2-1.32-1.48-1.52-1.52-.7-.12-1.1,1.44-2.24,1.32-.1-.01-1.41-1.32-1.45-1.41-.53-1.19,2.83-2.28-.08-3.78-1.04-.54-1.97,2.29-3.51,2.52-.11.02-1.68-1.3-1.72-1.4-.57-1.27,2.71-2.83,2.56-3.71-.03-.2-1.32-1.48-1.52-1.52-.75-.13-1.92,2.95-3.8-.51.08-.53,3.13-3.79,3.56-3.78l.62.24,17.65,17.42c.29.95,2.22,2.08,2.41,2.77.23.87-.45.86-.63,1.1-3.46,3.81-7.15,7.5-10.97,10.97Z"/>
    <path class="cls-2" d="M518.63,238.58c-1.64,2.29-8.68,9.32-10.97,10.97l10.97-10.97Z"/>
    <path class="cls-2" d="M467.12,189.4c-3.16,1.92-5.35,5.38-8.31,7.64.15-.45.16-.59.47-1.01.66-.87,5.9-6.18,6.65-6.65.22-.14.39-.36.69-.34.44-.02.38.26.49.35Z"/>
  </g>
  <g>
    <path class="cls-9" d="M688.8,186.54h65.9c2.25.31,4.14,2.82,4.4,5.04v53.18c-.3,2.46-2.17,4.4-4.39,5.28l-64.83.22c-2.61-.43-4.32-1.95-5.04-4.4-.48-18.45-.48-36.91,0-55.36.57-1.95,1.86-3.67,3.95-3.95ZM689.24,197.08h65.02c.42-.14.78-.44.88-.88.29-1.27.04-3.2-.44-4.39-.12-.3.02-.84-.41-1.11l-65.08-.02c-.3.21-.78,5.13-.71,5.76.04.38.42.54.74.64ZM690.12,246.32h65.06s0-45.55,0-45.55h-66.64s0,45.55,0,45.55h64.85s1.79,0,1.79,0v-1.79s0-43.06,0-43.06v-.71s-66.64,0-66.64,0v45.55s1.59,0,1.59,0Z"/>
    <rect class="cls-10" x="688.53" y="200.77" width="66.64" height="45.55"/>
    <path class="cls-11" d="M741.81,207.7c2.74-.96,3.29,1.2,2.43,3.3-.45,1.1-5.84,9.21-6.67,10.03-.63.62-1.29,1.18-2.21.92s-6.6-5.99-6.84-6.84c-.51-1.82,1.4-2.62,3.03-2.12,1.09.33,3.13,3.65,4.03,3.43,1.38-1.26,4.99-8.28,6.24-8.72Z"/>
    <path class="cls-11" d="M741.81,225.27c2.74-.96,3.29,1.2,2.43,3.3-.45,1.1-5.84,9.21-6.67,10.03-.63.62-1.29,1.18-2.21.92s-6.6-5.99-6.84-6.84c-.51-1.82,1.4-2.62,3.03-2.12,1.09.33,3.13,3.65,4.03,3.43,1.38-1.26,4.99-8.28,6.24-8.72Z"/>
    <path class="cls-16" d="M700.22,212.9c6.73-.15,13.46-.15,20.21,0,2.51.38,1.91,3.42-.31,3.86-5.89-.25-12.59.65-18.38.11-3.69-.34-4.18-3.58-1.52-3.97Z"/>
    <path class="cls-16" d="M700.22,230.47c6.75-.15,13.48-.15,20.21,0,2.66.4,2.18,3.63-1.52,3.97-5.79.54-12.49-.36-18.38-.11-2.22-.44-2.82-3.48-.31-3.86Z"/>
    <circle class="cls-15" cx="691.87" cy="193.61" r="2.02"/>
    <circle class="cls-15" cx="697.15" cy="193.61" r="2.02"/>
    <circle class="cls-15" cx="702.42" cy="193.61" r="2.02"/>
  </g>
  <g>
    <path class="cls-19" d="M969.85,209.51c.74,1.07.62,2.23.34,3.44-1.19,2.9-3.27,4.06-4.79,6.65.11.62,7.47,8.8,8.39,9.51.78.6,2.04.54,2.58,1.71v.69c-1.01,1.8-3.13.97-4.6.3l-8.66-9.92c-.76-.2-4.35,3.72-5.3,4.29,1.77,2.53,3.2-1.9,5.26-.54,2.5,1.65-2.76,4.54-3.72,5.44-1.56-.56-8.04-5.8-9.11-5.26-.73.36-.97,1.48-.37,2.1,4.1,3.6,7.4,10.35,12.81,11.94,2.13.62,8.81,1.06,10,1.94.95.71.79,2.51-.64,2.77-1.08.2-7-.86-8.42-1.18-7.13-1.61-9.16-6.01-13.96-10.79-3.34,1.4-7.25,5.05-10.98,5.42-.53.05-1.13-.4-1.63-.28-.36.09-1.52,1.66-2.27.61s.93-1.66,1.12-2.11c.27-.64.1-1.46.33-2.06.3-.79,1.17-1.83,1.28-2.54.05-.3-1.7-1.81-1.92-2.53-.29-.94-.28-2.51.04-3.44.26-.75,7.69-9.19,8.73-10.16.55-.52,1.32-1.4,2.08-1.54,1.13.22,2.31.27,3.44,0,1.53.06,5.01.89,6.33.69.88-.13,3.37-2.22,4.44-2.81,2.23-1.23,6.92-4.3,9.17-2.35ZM966.76,212.61c-.62-.12-2.22.44-2.06,1.19.29,1.42,2.11-.56,2.06-1.19ZM961.74,218.26c.48-.5,1.46-.63,1.2-1.63-.16-.61-1.33-1.58-2.03-1.14l-9.27,6.91c0,.2,2.97,1.99,3.56,1.91,2.19-2.02,4.49-3.91,6.54-6.06ZM952.32,217.42c-1.72.41-3.9-.86-5.35-.02-1.1,1.7-8.43,8.86-8.33,10.1.06.73.83,1.65,1.64,1.09l12.03-11.18ZM946.47,227.39c-.36-.33-2.62,1.92-2.69,2.28-.09.46.77,1.74,1.19,1.81.21.04,2.49-1.34,2.53-1.54.09-.42-1.36-1.71-1.03-2.56ZM942,232.55c-.92-.19-1.92.83-1.71,1.72l1.71-1.72Z"/>
    <path class="cls-13" d="M944.07,186.83l17.19,17.19v4.47c-.36.74-1.7,1.95-2.54,1.7-1.09-.32-.36-2.67-.34-3.4.03-1.09-.93-.35-1.73-.34-3.98.02-9.71.44-13.45,0-.57-.07-1.01-.08-1.18-.71v-15.47l-.5-.58-26.99.4.67,57.24h42.63c1.25-.25-.43-2.35.87-3.09,3.32.41,3.79,3.62,2.22,6.02h-48.82s-.34-.52-.34-.52v-62.57l.34-.34h31.97ZM945.44,203.33c.98.19,8.71.2,9.63,0,.22-.05.68-.4.68-.52,0-.74-9.49-8.95-10.48-10.48l-.4,10.5c.03.27.33.45.58.5Z"/>
    <path class="cls-8" d="M941.66,214.33c.94.3-1.62,2.63-1.87,2.77-2.14,1.23-13.03-.25-16.17.32-1.44-.05-1.73-2.79-.53-3.08h18.56Z"/>
    <path class="cls-18" d="M933.76,230.83c1.47.34,1.08,2.41,0,2.92-.57.27-9.61.34-10.42.1-1.22-.36-1.34-2.76-.24-3.02,3.47-.39,7.18-.4,10.66,0Z"/>
    <path class="cls-7" d="M934.44,222.58c1.08.83.2,1.47.03,1.74-.81,1.28-.68,1.18-2.59,1.37-1.32.13-7.56.2-8.55-.09-1.22-.36-1.34-2.76-.24-3.02,3.75-.35,7.53-.35,11.34,0Z"/>
    <path class="cls-13" d="M961.26,208.48c-.65-1.16-.48-3.22,0-4.47.6,1.08.56,3.32,0,4.47Z"/>
    <path class="cls-13" d="M970.2,212.95l-.34-3.44c1.52,1.32.96,1.95.34,3.44Z"/>
    <path class="cls-13" d="M949.91,213.98c-.76.59-2.74.57-3.44,0,.82-.15,2.5-.04,3.44,0Z"/>
  </g>
  <g>
    <path class="cls-3" d="M99.1,166.37c4.16-3.07,8.33-5.83,12.49-8.3"/>
    <path class="cls-4" d="M145.17,144.62c17.81-3.69,35.61-1.92,53.42,5.32"/>
    <path class="cls-3" d="M214.84,158.06c4.16,2.47,8.33,5.24,12.49,8.3"/>
  </g>
  <g>
    <path class="cls-3" d="M439.37,268.91c-4.16,3.07-8.33,5.83-12.49,8.3"/>
    <path class="cls-4" d="M393.3,290.66c-17.81,3.69-35.61,1.92-53.42-5.32"/>
    <path class="cls-3" d="M323.64,277.21c-4.16-2.47-8.33-5.24-12.49-8.3"/>
  </g>
  <g>
    <path class="cls-3" d="M531.89,166.37c4.16-3.07,8.33-5.83,12.49-8.3"/>
    <path class="cls-4" d="M577.96,144.62c17.81-3.69,35.61-1.92,53.42,5.32"/>
    <path class="cls-3" d="M647.62,158.06c4.16,2.47,8.33,5.24,12.49,8.3"/>
  </g>
  <g>
    <path class="cls-3" d="M897.32,274.06c-4.16,3.07-8.33,5.83-12.49,8.3"/>
    <path class="cls-4" d="M851.25,295.8c-17.81,3.69-35.61,1.92-53.42-5.32"/>
    <path class="cls-3" d="M781.58,282.36c-4.16-2.47-8.33-5.24-12.49-8.3"/>
  </g>
</svg>